/* XPM */
static char *_00d5f3e53754e90e7e951856d0d96b1davfg47P051HuECb[] = {
/* columns rows colors chars-per-pixel */
"64 64 4 1 ",
"  c #091326",
". c #111D33",
"X c #1F283A",
"o c #293243",
/* pixels */
"................................................................",
"XXXXXXXXXXXXXXXXXXX...XXXXXXXXXXXXXXXXXXXXXXXXXXXXX...XXXXXXXXXX",
"ooooooooooooooooooXX.XXXoXXoXoooooooooooooooooooooXX.XXXoXXoXooo",
"XXXXXXXXXXXXXXXXXooX XXXXXXXXXXXXXXXXXXXXXXXXXXXXooX XXXXXXXXXXX",
"XXXXXXXXXXXXXXXXXXoX XXXXXXXXXXXXXXXXXXXXXXXXXXXXXoX XXXXXXXXXXX",
"XXXXXXXXXXXXXXXXXXoX XXXXXXXXXXXXXXXXXXXXXXXXXXXXXoX XXXXXXXXXXX",
"XXXXXXXXXXXXXXXXXXoX XXXXXXXXXXXXXXXXXXXXXXXXXXXXXoX XXXXXXXXXXX",
"XXXXXXXXXXXXXXXXXXoX XXXXXXXXXXXXXXXXXXXXXXXXXXXXXoX XXXXXXXXXXX",
"XXXXXXXXXXXXXXXXXXoX XXXXXXXXXXXXXXXXXXXXXXXXXXXXXoX XXXXXXXXXXX",
"XXXXXXXXXXXXXXXXXXoX XXXXXXXXXXXXXXXXXXXXXXXXXXXXXoX XXXXXXXXXXX",
"XXXXXXXXXXXXXXXXXXoX XXXXXXXXXXXXXXXXXXXXXXXXXXXXXoX XXXXXXXXXXX",
"XXXXXXXXXXXXXXXXXXoX XXXXXXXXXXXXXXXXXXXXXXXXXXXXXoX XXXXXXXXXXX",
"XXXXXXXXXXXXXXXXXXXX XXXXXXXXXXXXXXXXXXXXXXXXXXXXXXX XXXXXXXXXXX",
"XXXXXXXXXXXXXXXXXXXX XXXXXXXXXXXXXXXXXXXXXXXXXXXXXXX XXXXXXXXXXX",
"XXXXXXXXXXXXXXXXXXX.. XXXXXXXXXXXXXXXXXXXXXXXXXXXXX.. XXXXXXXXXX",
"                  ....                            ....          ",
"................................................................",
"XXXXXX...XXXXXXXXXXXXXXXXXXXXXXXXXXXXX...XXXXXXXXXXXXXXXXXXXXXXX",
"oooooXX.XXXoXXoXoooooooooooooooooooooXX.XXXoXXoXoooooooooooooooo",
"XXXXooX XXXXXXXXXXXXXXXXXXXXXXXXXXXXooX XXXXXXXXXXXXXXXXXXXXXXXX",
"XXXXXoX XXXXXXXXXXXXXXXXXXXXXXXXXXXXXoX XXXXXXXXXXXXXXXXXXXXXXXX",
"XXXXXoX XXXXXXXXXXXXXXXXXXXXXXXXXXXXXoX XXXXXXXXXXXXXXXXXXXXXXXX",
"XXXXXoX XXXXXXXXXXXXXXXXXXXXXXXXXXXXXoX XXXXXXXXXXXXXXXXXXXXXXXX",
"XXXXXoX XXXXXXXXXXXXXXXXXXXXXXXXXXXXXoX XXXXXXXXXXXXXXXXXXXXXXXX",
"XXXXXoX XXXXXXXXXXXXXXXXXXXXXXXXXXXXXoX XXXXXXXXXXXXXXXXXXXXXXXX",
"XXXXXoX XXXXXXXXXXXXXXXXXXXXXXXXXXXXXoX XXXXXXXXXXXXXXXXXXXXXXXX",
"XXXXXoX XXXXXXXXXXXXXXXXXXXXXXXXXXXXXoX XXXXXXXXXXXXXXXXXXXXXXXX",
"XXXXXoX XXXXXXXXXXXXXXXXXXXXXXXXXXXXXoX XXXXXXXXXXXXXXXXXXXXXXXX",
"XXXXXXX XXXXXXXXXXXXXXXXXXXXXXXXXXXXXXX XXXXXXXXXXXXXXXXXXXXXXXX",
"XXXXXXX XXXXXXXXXXXXXXXXXXXXXXXXXXXXXXX XXXXXXXXXXXXXXXXXXXXXXXX",
"XXXXXX.. XXXXXXXXXXXXXXXXXXXXXXXXXXXXX.. XXXXXXXXXXXXXXXXXXXXXXX",
"     ....                            ....                       ",
"................................................................",
"XXXXXXXXXXXXXXXXXXX...XXXXXXXXXXXXXXXXXXXXXXXXXXXXX...XXXXXXXXXX",
"ooooooooooooooooooXX.XXXoXXoXoooooooooooooooooooooXX.XXXoXXoXooo",
"XXXXXXXXXXXXXXXXXooX XXXXXXXXXXXXXXXXXXXXXXXXXXXXooX XXXXXXXXXXX",
"XXXXXXXXXXXXXXXXXXoX XXXXXXXXXXXXXXXXXXXXXXXXXXXXXoX XXXXXXXXXXX",
"XXXXXXXXXXXXXXXXXXoX XXXXXXXXXXXXXXXXXXXXXXXXXXXXXoX XXXXXXXXXXX",
"XXXXXXXXXXXXXXXXXXoX XXXXXXXXXXXXXXXXXXXXXXXXXXXXXoX XXXXXXXXXXX",
"XXXXXXXXXXXXXXXXXXoX XXXXXXXXXXXXXXXXXXXXXXXXXXXXXoX XXXXXXXXXXX",
"XXXXXXXXXXXXXXXXXXoX XXXXXXXXXXXXXXXXXXXXXXXXXXXXXoX XXXXXXXXXXX",
"XXXXXXXXXXXXXXXXXXoX XXXXXXXXXXXXXXXXXXXXXXXXXXXXXoX XXXXXXXXXXX",
"XXXXXXXXXXXXXXXXXXoX XXXXXXXXXXXXXXXXXXXXXXXXXXXXXoX XXXXXXXXXXX",
"XXXXXXXXXXXXXXXXXXoX XXXXXXXXXXXXXXXXXXXXXXXXXXXXXoX XXXXXXXXXXX",
"XXXXXXXXXXXXXXXXXXXX XXXXXXXXXXXXXXXXXXXXXXXXXXXXXXX XXXXXXXXXXX",
"XXXXXXXXXXXXXXXXXXXX XXXXXXXXXXXXXXXXXXXXXXXXXXXXXXX XXXXXXXXXXX",
"XXXXXXXXXXXXXXXXXXX.. XXXXXXXXXXXXXXXXXXXXXXXXXXXXX.. XXXXXXXXXX",
"                  ....                            ....          ",
"................................................................",
"XXXXXX...XXXXXXXXXXXXXXXXXXXXXXXXXXXXX...XXXXXXXXXXXXXXXXXXXXXXX",
"oooooXX.XXXoXXoXoooooooooooooooooooooXX.XXXoXXoXoooooooooooooooo",
"XXXXooX XXXXXXXXXXXXXXXXXXXXXXXXXXXXooX XXXXXXXXXXXXXXXXXXXXXXXX",
"XXXXXoX XXXXXXXXXXXXXXXXXXXXXXXXXXXXXoX XXXXXXXXXXXXXXXXXXXXXXXX",
"XXXXXoX XXXXXXXXXXXXXXXXXXXXXXXXXXXXXoX XXXXXXXXXXXXXXXXXXXXXXXX",
"XXXXXoX XXXXXXXXXXXXXXXXXXXXXXXXXXXXXoX XXXXXXXXXXXXXXXXXXXXXXXX",
"XXXXXoX XXXXXXXXXXXXXXXXXXXXXXXXXXXXXoX XXXXXXXXXXXXXXXXXXXXXXXX",
"XXXXXoX XXXXXXXXXXXXXXXXXXXXXXXXXXXXXoX XXXXXXXXXXXXXXXXXXXXXXXX",
"XXXXXoX XXXXXXXXXXXXXXXXXXXXXXXXXXXXXoX XXXXXXXXXXXXXXXXXXXXXXXX",
"XXXXXoX XXXXXXXXXXXXXXXXXXXXXXXXXXXXXoX XXXXXXXXXXXXXXXXXXXXXXXX",
"XXXXXoX XXXXXXXXXXXXXXXXXXXXXXXXXXXXXoX XXXXXXXXXXXXXXXXXXXXXXXX",
"XXXXXXX XXXXXXXXXXXXXXXXXXXXXXXXXXXXXXX XXXXXXXXXXXXXXXXXXXXXXXX",
"XXXXXXX XXXXXXXXXXXXXXXXXXXXXXXXXXXXXXX XXXXXXXXXXXXXXXXXXXXXXXX",
"XXXXXX.. XXXXXXXXXXXXXXXXXXXXXXXXXXXXX.. XXXXXXXXXXXXXXXXXXXXXXX",
"     ....                            ....                       "
};
