/* XPM */
static char *_164929d55924518cb0aac5ab9688090t2S1oHaJgrTiSITj[] = {
/* columns rows colors chars-per-pixel */
"64 64 32 1 ",
"  c #A16F83",
". c #A57283",
"X c #A97385",
"o c #B17689",
"O c #B2758C",
"+ c #AB8C95",
"@ c #B18291",
"# c #B08693",
"$ c #B58593",
"% c #B38995",
"& c #B78A95",
"* c #BC8896",
"= c #B98C97",
"- c #B98B98",
"; c #BE8998",
": c #B98C98",
"> c #BC8E9A",
", c #B7979F",
"< c #B8919C",
"1 c #BA959F",
"2 c #BC949F",
"3 c #BD93A0",
"4 c #BF95A1",
"5 c #BE9AA1",
"6 c #BD9FA6",
"7 c #C1919D",
"8 c #C397A2",
"9 c #C69AA5",
"0 c #C69FA8",
"q c #C6A5AC",
"w c #C8A5AD",
"e c #C6ACB3",
/* pixels */
"eeeeeeq0qq000qeeeeeeeeeeeeeeqqeeeeqqqqeeeeeeeeeeeeeeeeeeeeq0009:",
"qqqqqq000000qqqqqqqqqqqqqqqqqqqqqqqqqqqqqqqqqqqqqqqqqqqqqqqq009=",
"00qqqqqqqqqqqqqq0000qqq000qqq000qqqqqqqqq00000qqqq0qqqqq000qqq9<",
"00000qqqq00qqqqqqq000qqqq000qqqqqq000qqqqq000qq000qqq00000qqq09#",
"qqqq000000qqq000977999000999000qqqqq00009999000qq00990990900009&",
"000qqq00qqq0qq0000999099000000qqq000009999000990qqq0qq0990009992",
"90000099990009900000000qqq0099000009900qqqqq00q000qqq09999900992",
"009999990q0090qqqq0000990qqq09990000qqqqqq000qqqqqqq000099999991",
"9990000qq00qqq0000qqqq0999099000999999990000000qq000099900qqq09&",
"0999990000990qqq0000qqqq0000qq0qq00099999900qqqq00999900000qqq9#",
"qq000099900099000qqq009999990000qq00qqqqqqqq00099000000qqqqq009#",
"000qq00099990000qqq0000099999999000000qqq00990000000qqqqq009907&",
"99000qqq0099999000009909999000099999009009990000099900099900997%",
"9999qqq00000099999990000009900999900000999999900990000000099997%",
";;77777;77;;;;7;7777;;;;;;;;;;;;;;;;;;;;;;;;;;;;;;;;;;;;;;;;;;;@",
"o;;;;;;;;;;;;;;;;;;;;;;;oooooooooo;oo;;;;;oo;;ooooooooooooooooo.",
"qqeeeeqq0qeeeeeeeeeeeeeeeeeeeq77eeeeeeeeeeqeeeeeqq0000999990990,",
"0qqqqqq0990qqqqqqqqqqqqqqqqqqq97qqqqqqqqqqqqqqqqqqqq000qqq00000,",
"qqqqq0000q0000qqqq00000000qqq097qqq00000qqqq000990qqqq0000qqqqq6",
"qqqqqqqqqqq00qqq000qq0qqqqq0q0970qqq000000999900qqqqq000000qqqq6",
"0000qqqq000000999900qqqq00099779990000099900qqqq00999990qqq000q6",
"0qqq00qqqqqq000099990q009999999990009900099000qqq000099999990qq5",
"qq00000000qqqqqq00qqqqq00000099799999000990qq00qqqqq00qq0000qqq6",
"00990000qqq00qqqqqqqq000qq00999700999900qqqqqqqqqq0009990qqqqqq6",
"0qq0999999000000qqq0990000qqq097qqq0000qqqq00990999990009900099+",
"qq000009999999000qqq00000qqqqq770009900000qqqq000099099000000093",
"099900q0qqq00qqqqq0000990000qq979000qqqqqqqq0000qq00qq0009999005",
"9990000000qq00qq00999900099qq077009900qqqqqqq00009900qqq00999994",
"009999900q009900099990000099097799900000000009990000009999000992",
"9000099999000999000099909999997799999900990999900099999900009905",
";;;;;;;;;;;;;;;7777777;;;;;;;;;;;;;;;;;;;;;;;;;77;7777777777;;;$",
"oooooooo;;oo;;;;;;;;;;;;oo;;oooooooooooooo;oo;;;;;;;;;;;;;;;;ooX",
"qeeeeeeeeeqeeeqq000000qqeeeeeeeeeeeeeeeeeeeeeeqeeeeeeeeeqqqqq09-",
"00qqqqqqqqqqqqqqqq0000000qqqqqqqqqqqqqqqqqqqq000qqqqqqqqqqqq0094",
"9009900qqqqq00qq00qqqqqqqqqqqq000qqq000qq00qqq0qqq00qqqq0000qq98",
"099900qqqq000000qqqqqqq0000qqqqq00qqq00000999000000qqq099990009>",
"000qqq000099777990000qqq0990qqqqqq0000qqqqq09900qqq000000999997:",
"qqqqq000990009779999900000qqqqqqqqqq000qqqqq0qq00qqq00099999007:",
"0000qqqqq0000000qq0009999000000qq000qqqqq000000qqq09990000qqqq7=",
"00qq00qqqqqq0qqqq0009999999900990qq000qqqq00990009909990qqqqqq9&",
"99000000qq00000999999900000qqq00qq00009900qq099999000099990qqq9<",
"099900q00qq0999990qqq000qqqq099000099990000qqq00000099990000qq9%",
"0qq0999qqqqq00000qq000qq00999000999000000qqqq00990qq0000qqqqqq9>",
"qq000999000qq0qq0099900990099990099900qqqqqqqqqq09900qqq000qqq97",
"0099990qq00990009999000099900099990qqq0009000990009900qqq009907>",
"99900000qq00990000099999999900000000099900999999990000990000997>",
";;;;;;7;77777777777777;77;;;;;;;;;;;;;77777777;77;;;;;;;;;;;;;;*",
";;;;oo;;;;;;;;;;;;;;;;;;;;oooooooooo;;;;;;;;;;;;;;oo;;oooooooooo",
"eeeeq00000qqeeeeeeeeeqeeqqqq0097eeeeeeeeeee0eeeeqq0000qqeeeeeeee",
"qqqqqq9900000qqqqq00qqqqqq000099qqqqqqqq00990qq00000qqqqqqqqqqqq",
"q0000009990q00qq000qqqq000qqqq99000qqqqqqq00000099900qqqqq0000qq",
"qq9999000000qqqqq00000000qqqq0970qq00000qqqqqq099000qqqq0900qqqq",
"9900qqqqqqqqqq0000999990000099979909990qqqqqq0000qqq000990q00qq9",
"99900qqqqqqq000qq0000999990009970000999900qqqqq000qqqq00000qqq00",
"000qqqqqq000qqqqqqqqq0009999999900qqq00qqqq00000qq00000979990099",
"wqqqq000qq0000qqqqqq009999909999qq0qqqqqq00099000000997799000000",
"00qqqq00099999990000qqqq0000qq970000000qqqqqq0999999999000qqqqqq",
"0qq0009999990qqqqq0000qqqqqq0097009900qqqqqq000099900000qqqqqq00",
"90000qq000qqq000qqqq0999000qq09799900qqq00qqqq0qqq000qq009999999",
"99999900qqqqqqq00990999000000097099999000qqqqqqq0000009999900009",
"00009999999000qqq00000099000999700099990990099999999000099990000",
"000999999999990000qqq0990099997700999000000000099999999000000098",
";;;;;;;;;;;;;;;;;;;;;;7;77;;77777777;;;;;;;;;;;;;;;;;;;;;;;;;;;;",
"Oooooooooooooooooooo;;;;;;;;;;;;;;;;;o;;ooooooooooooooooooooooo "
};
