/* XPM */
static char *_92470e5819f4524d8a97fc43a0581e3XhA6OjuIvoGvYZ2g[] = {
/* columns rows colors chars-per-pixel */
"64 64 23 1 ",
"  c #A7AAAB",
". c #AFAFAF",
"X c #B5B6B7",
"o c #B6B7B8",
"O c #B7B9B9",
"+ c #B9B9B9",
"@ c #BBBBBC",
"# c gray74",
"$ c #BFC0C0",
"% c #C3C3C3",
"& c #C3C4C4",
"* c #C5C5C5",
"= c #C6C7C8",
"- c #C7CACA",
"; c #CBCBCB",
": c #CBCBCC",
"> c #D0D0D0",
", c #D1D2D4",
"< c #D2D5D5",
"1 c #DADADA",
"2 c #DDDDDE",
"3 c #E1E1E1",
"4 c #E9E9E9",
/* pixels */
"4444444444444344444433333344344434334444444433333111331113113312",
"113333333333333333333333133333333333333331133333331111111133311<",
"11113333333333333313331133331311333331111133333111>>131133311>>,",
"11>111133333111331333331113331111313331>11>111331>>13111133311>=",
"1>>>>111>1>>>>1133311111>11>>1>1311111>>>>111>>1>1111>>>11>>>>1>",
">1>>111>>>11>>>>>1331>111>>1>>111>>11111>>>*11>>1>11>>>11>>**>><",
">*>>>*>>>11>*>>>**>111>>>>**1111*>**>>>>>**>>>1>>1>>****>>*>**>;",
">**>>>*>>>**>>***>>>>>****#>>1>>>##**>>*>>**>>>**>>>>>****#*>>>$",
"**###****>>*************##***#*****##*>>**##****>>***#**##**##*#",
"##*#####**##****####*****#########******###**##****##****####**X",
"####...########**########.......#*#*###**#######....###########o",
"##............####..##................####....................#O",
"1>>*....#*>>1111333333331133311#*>11111133331133>**##....##*331-",
"11>>#..#*>>>>>>>>1>11>>>>>>1131#>111333311>>11>133>*##..#*3311>>",
">>>>*.##**>>>>>>>>>>>>*>>>>>11*#113331>>>111>>>>>11>>#.#*331111,",
">>*>>.#*>>>>**>>*>>>>>>***>>11##1331>>>>111>>>1>>>>1*#.#*311>11,",
">>>*>#*>>>***>>*>>>>>***>>>>1*#131>>>>*>>>>*>1>>>>>>**##131>>>>>",
">>>>>#*>>1>***>>>>>>>>*>*>>11*#13>11>*>>>>***>>>>>>>*>##3111>>1-",
">>>>>*#>*>1>>>>>>>**>>>>1>>31.>11>>>>>1>1>*>>>>>>*>**>##31>>>>>;",
"*>>>1>#*>>>>>>>>>>>11>>>>113#.111>>>>111>>>>11>>>>**>1##3>>>>>>;",
">**>>1*#*>>>>>>*>*>>>>>1113*##11>>>*>>>111>11>>>>**>1>#*1>>*>>>;",
"**>>>13#***>11>>*>>>111133*#.#>11>**>>111>>>>1>>>>>>1>#*>>**>*>%",
"*>*>>>33#*>>>>111111>>133##..#*>>>>**>>>11>>>>>>>>>11*.*>1>**>>;",
">>>>>1133#**>>*>>111111#....###**>>>>>>>>>>>>*>>>>111*..>3>>>>>:",
">>>>>>1113##*>>*>>>**#....##..##*#**>*>>>>>>*>>>1111*#.#*31>>>>$",
">>>>>1>1111###****#...##>1>>*#..#****>>>>>>>>>1111**..##*11>>>>-",
"1>>>>>>>>111*###..##>>1133311>*#.#*>1>>>>>11111***..#####>1>>>*:",
">>>>*>*>>>11>##..#>1333311>1>>1>###*>11>1111>***...#**#.##>1>>>%",
">>>>>*>>>>13>*.##>3331111>111113>*##**>***####*>>33311*#..#>>>>;",
">>11>>1>>113**##>331>>>1111111113>*###**####>>1133333331#..#>1>;",
">11>>>>1111>*##>311>>>111>>1111133>*#.#..#>>11>>>1>1133331##*>1;",
">>>>>111311**#>1>>11>>>>11>>>>11131>##..>1111>>*>>113333333#.*>-",
"1>>1133311*##*11>>>>>>>1>>>>11>>>111*##>11>>>>*>>>>>>1111133#..;",
">1333311*#..#>1>>>>>>>>>>>>>>>>>>>1>*.#1>>>>11>>11>>11>111113#..",
"#*>>>*#...##*>>>>>>>>>>>>>>>>>>>>1>>#.>1>>>>>11>>>1>>>1111>>13#.",
".##*##..###**>*>>>>>>>>>>>>>>1>>>>>*..1>>>>>1>>>>111>>>11>>>>1*#",
".#>11111>*#*>*>>>>>>>>>>1>>11>>>>*>#.#>>>*>>>>>>11>>>>>>>11>>1*+",
"#>1111111>*#1>>>1>1>>>11>>3311>>>>*#.*>>>>**>>>>>>>11>1>>>>>1>>+",
"#1>>>>>111>#31>111>>>*>1331>>>>>1**.#***>**>>>*>>>1>11>>>>>>>>>$",
"*>>*>>>>>1>*3>>>>>>>*>>33111>1>1**#.##*>>>>>****>>>1>>>>>>>*>>>O",
"*>*>>>>>>>1>*11>>1>>>>11>>>11>**##...##******>>>>*>>>>>>>*>**>*o",
">>>>>>>>>>1>*3111>>>111111>>####..##...#**>***>>*>>>>>>>>>**>>*o",
"*>**>>>>>>>>#*333111111>>*#....#113333#..**>>>>>>>>>>>>>**>>>*#@",
">**>>>>>>>>>##**333311**##...#1333333333#.#*>>1>>>>>>>>**>>**##*",
">>>>>>>>>*>*#####****##...##13331111111331####*11>>>>>>>>**####&",
">>>*>>>**>*##.##***###...##1331111>>1111131>*#.#111>>>>*****#.#%",
"*>***>>>**#..>>11>>>*###.#131>>>>11>>>11>11331#..>11111>*#...#**",
"**>*>>*###..>113331>>*###*>111>>>>>>>11>>>11331>..#*>>*#....####",
"##******##>133331>>>>**##>1>>111>>*>>>>>111>>131>#......**11>>*#",
"**##**###113311>>1>>*>*#*>>>111>****>>>>>1>>1111>>#..##>1333331>",
">**#####1331>>>>1>1>>>*#*>>1>>***>>>>>>>>>>>>>>11>*.#>1333311133",
"1>>*###>331>>>>>>111>>*#>>>>>*>***>>>>>>>>*>>>>>>>*#>>3311111111",
">1>>###1311>>>11>>>>>**#>>**>>>>>>>>>>>>>*>>>>>>>1*#>1311>1>11>>",
">>>>*#>13>11>>>11>>>>*##>1>**>>>>>>>>>>>>>>*>>>>>1#.>31>>>>11>>>",
"*>>>>#>>1>>>>>>>>*>*>*#.1>>>>>>>>>>>>>>>***>>>>>>*#.>>1>>>>>>>>>",
"**>>>#*>1>>>>*>>>**>**#.1>>>>1>>>>>>*>>>>***>>>>1*.**>>1>>>>>>*>",
">>*>>*#>>1>**>>>**>>*###>1>>>>1>>>>*>>**##*>>>11####**>>>>>>**>>",
">>>>>>#*>1>>**>>>>>*#.##*31>>111>>>1>>>**>>*11#..#####*>>>>>>***",
">>>>>>***>111>>>>>##...##*33311>>11>>**##*#....#**>>*###**>>>>>>",
">>>>>>>*##>11111*##.##..##*>333311**####.....##>>>>>>>*##*****>>",
">>>>>**#####****##*13333>##**>>**###>33333>*#*>>>>>**>>**##**>>>",
">>**#####*****##*113311111>#****##>33331113>##*>*>*****>**###**%",
"####**>1111>*##*11311111>>1>#**#>111>>>>>111>#**>>>>>***########",
"##**>111>>11>*#>111111>>>111##*>11>>>>>>1>>111##*>>>***###***** "
};
